<svg width="18" height="18" viewBox="0 0 18 18" fill="none" xmlns="http://www.w3.org/2000/svg">
<path d="M10.5 4.125C10.5 3.82663 10.6185 3.54048 10.8295 3.3295C11.0405 3.11853 11.3266 3 11.625 3C11.9233 3 12.2095 3.11853 12.4205 3.3295C12.6314 3.54048 12.75 3.82663 12.75 4.125V9M10.5 4.125V2.625C10.5 2.32663 10.3815 2.04048 10.1705 1.8295C9.95949 1.61853 9.67334 1.5 9.37498 1.5C9.07661 1.5 8.79046 1.61853 8.57948 1.8295C8.3685 2.04048 8.24998 2.32663 8.24998 2.625V3.75M10.5 4.125V8.25M8.24998 3.75C8.24998 3.45163 8.13145 3.16548 7.92047 2.9545C7.70949 2.74353 7.42334 2.625 7.12498 2.625C6.82661 2.625 6.54046 2.74353 6.32948 2.9545C6.1185 3.16548 5.99998 3.45163 5.99998 3.75V10.0965L4.78498 8.87775C4.65934 8.75156 4.50842 8.65338 4.34214 8.58966C4.17586 8.52594 3.99797 8.49812 3.82018 8.50804C3.64238 8.51796 3.4687 8.56538 3.31053 8.6472C3.15237 8.72901 3.0133 8.84337 2.90248 8.98275C2.72716 9.20261 2.62964 9.47437 2.62516 9.75553C2.62068 10.0367 2.7095 10.3114 2.87773 10.5367L5.57773 13.9852C6.09448 14.6452 6.37498 15.6623 6.37498 16.5M8.24998 3.75V7.5M13.5 16.5V15.627C13.5058 15.2276 13.6564 14.8438 13.9237 14.547C14.2275 14.2005 14.6077 13.7205 14.7517 13.344C15 12.6952 15 11.88 15 10.2502V5.625C15 5.32663 14.8815 5.04048 14.6705 4.8295C14.4595 4.61853 14.1733 4.5 13.875 4.5C13.5766 4.5 13.2905 4.61853 13.0795 4.8295C12.8685 5.04048 12.75 5.32663 12.75 5.625" stroke="#555755" stroke-width="1.5" stroke-linecap="round" stroke-linejoin="round"/>
</svg>
