<svg width="20" height="20" viewBox="0 0 20 20" fill="none" xmlns="http://www.w3.org/2000/svg">
<path fill-rule="evenodd" clip-rule="evenodd" d="M10.0002 4.25C12.4604 4.25012 14.8227 5.66373 16.5461 8.28613C17.2288 9.32518 17.2288 10.6748 16.5461 11.7139C14.8227 14.3363 12.4604 15.7499 10.0002 15.75C7.53984 15.75 5.17669 14.3364 3.4533 11.7139C2.77078 10.6749 2.77078 9.32509 3.4533 8.28613C5.17669 5.66362 7.53984 4.25005 10.0002 4.25ZM10.0002 5.75C8.16088 5.75005 6.22357 6.802 4.7072 9.10938C4.35297 9.64846 4.35297 10.3515 4.7072 10.8906C6.22357 13.198 8.16088 14.25 10.0002 14.25C11.8394 14.2499 13.7768 13.198 15.2931 10.8906C15.6473 10.3516 15.6473 9.64844 15.2931 9.10938C13.7768 6.802 11.8394 5.75012 10.0002 5.75ZM10.0002 6.75C11.7949 6.75018 13.2502 8.20518 13.2502 10C13.2502 11.7948 11.7949 13.2498 10.0002 13.25C8.20531 13.2499 6.75017 11.7949 6.75017 10C6.75017 8.20512 8.20531 6.75007 10.0002 6.75ZM9.89666 8.25488C9.96236 8.40685 10.0002 8.57391 10.0002 8.75C10.0002 9.44029 9.44044 9.99989 8.75017 10C8.57412 10 8.40699 9.96216 8.25505 9.89648C8.25305 9.93077 8.25017 9.96521 8.25017 10C8.25017 10.9665 9.03373 11.7499 10.0002 11.75C10.9665 11.7498 11.7502 10.9664 11.7502 10C11.7502 9.03361 10.9665 8.25018 10.0002 8.25C9.96538 8.25 9.93094 8.25288 9.89666 8.25488Z" fill="#646663"/>
</svg>
